<?xml version="1.0" encoding="UTF-8"?><svg id="Layer_2" xmlns="http://www.w3.org/2000/svg" xmlns:xlink="http://www.w3.org/1999/xlink" viewBox="0 0 891.37 234.18"><defs><filter id="drop-shadow-1" filterUnits="userSpaceOnUse"><feOffset dx="7" dy="7"/><feGaussianBlur result="blur" stdDeviation="0"/><feFlood flood-color="#ffaf2e" flood-opacity=".75"/><feComposite in2="blur" operator="in"/><feComposite in="SourceGraphic"/></filter><filter id="drop-shadow-2" filterUnits="userSpaceOnUse"><feOffset dx="7" dy="7"/><feGaussianBlur result="blur-2" stdDeviation="0"/><feFlood flood-color="#ffaf2e" flood-opacity=".75"/><feComposite in2="blur-2" operator="in"/><feComposite in="SourceGraphic"/></filter></defs><g id="Layer_1-2"><g style="filter:url(#drop-shadow-1);"><path d="M520.91,148.87c.84-1.46,1.77-3.06,2.78-4.81,1.01-1.75,2.02-3.53,3.04-5.37,1.01-1.83,1.99-3.66,2.95-5.49.96-1.82,1.82-3.55,2.59-5.18.77-1.63,1.41-3.12,1.94-4.46.52-1.34.86-2.45,1.01-3.33.76-4.47.21-8.19-1.68-11.14-1.88-2.95-5.21-4.84-9.99-5.66-3.12-.53-5.9-.23-8.34.9s-4.56,3.03-6.34,5.69c-.84,1.25-1.9,2.2-3.18,2.86s-2.64,1.04-4.07,1.16-2.86,0-4.28-.39c-1.42-.38-2.68-1-3.79-1.85-1.21-.9-2.17-1.96-2.89-3.16-.72-1.2-1.17-2.46-1.37-3.76-.2-1.31-.12-2.62.23-3.94.35-1.32,1-2.56,1.97-3.72,2.06-2.44,4.4-4.55,7.04-6.33,2.64-1.78,5.51-3.19,8.62-4.23,3.11-1.04,6.43-1.67,9.98-1.9,3.54-.23,7.28-.01,11.21.66,2.68.46,5.34,1.13,8,2.02,2.66.89,5.17,2.04,7.55,3.43,2.38,1.4,4.55,3.08,6.51,5.04,1.97,1.96,3.58,4.22,4.85,6.79,1.27,2.57,2.12,5.48,2.54,8.72.42,3.25.29,6.87-.39,10.87-.48,2.81-1.42,5.86-2.82,9.14s-3.15,6.79-5.25,10.51c-2.1,3.72-4.49,7.66-7.17,11.82-2.68,4.16-5.55,8.53-8.6,13.1-1.85,2.86-4.29,4.94-7.32,6.25-3.03,1.31-6.34,1.66-9.94,1.05-1.83-.31-3.52-.83-5.07-1.55-1.55-.72-2.93-1.62-4.14-2.7-1.21-1.08-2.21-2.34-2.99-3.78-.78-1.44-1.34-3.03-1.67-4.76l-4.27-23.7-3.2-.55c-1.22-.21-2.29-.63-3.21-1.26-.92-.63-1.68-1.4-2.27-2.32-.59-.92-1-1.94-1.23-3.06-.23-1.12-.24-2.29-.03-3.51.21-1.22.61-2.33,1.2-3.33.59-1,1.32-1.83,2.18-2.5.86-.67,1.83-1.15,2.91-1.44,1.08-.29,2.23-.33,3.45-.12l13.67,2.34c1.22.21,2.21.62,2.98,1.22.77.6,1.4,1.36,1.89,2.26.49.9.87,1.93,1.15,3.07.27,1.15.51,2.36.71,3.65l2.53,16.7Z" style="fill:#fff; stroke-width:0px;"/><path d="M644.55,159.07c-.53,3.12-1.29,6.15-2.26,9.11-.98,2.96-2.27,5.71-3.87,8.26-1.6,2.55-3.54,4.82-5.79,6.8-2.26,1.99-4.94,3.59-8.04,4.8-3.1,1.21-6.66,1.97-10.67,2.26-4.01.29-8.54,0-13.59-.86-5.08-.87-9.47-2.11-13.17-3.72-3.7-1.61-6.8-3.5-9.31-5.67-2.51-2.17-4.49-4.57-5.96-7.19-1.47-2.62-2.52-5.4-3.15-8.33-.63-2.93-.92-5.95-.86-9.06.06-3.11.36-6.23.89-9.34l7.06-41.32c.25-1.46.75-2.75,1.5-3.88.75-1.13,1.67-2.05,2.77-2.77s2.33-1.22,3.69-1.52,2.76-.31,4.22-.06c1.46.25,2.78.74,3.96,1.46,1.18.73,2.17,1.61,2.97,2.65.8,1.04,1.37,2.22,1.72,3.54s.4,2.7.15,4.16l-7.32,42.8c-.35,2.03-.42,4.1-.22,6.21s.81,4.09,1.84,5.94,2.54,3.47,4.53,4.86c2,1.39,4.6,2.36,7.82,2.91,3.18.54,5.93.49,8.24-.16s4.25-1.68,5.81-3.09c1.57-1.41,2.79-3.07,3.68-5s1.5-3.9,1.85-5.93l7.32-42.8c.25-1.46.76-2.75,1.52-3.87.77-1.12,1.71-2.04,2.83-2.76,1.12-.71,2.36-1.22,3.74-1.51,1.37-.29,2.79-.31,4.25-.06s2.79.74,3.99,1.47c1.2.73,2.21,1.62,3.02,2.66.82,1.05,1.4,2.23,1.75,3.54.35,1.32.4,2.7.15,4.16l-7.06,41.32Z" style="fill:#fff; stroke-width:0px;"/><path d="M677.4,191.21c-.25,1.49-.77,2.81-1.54,3.95-.77,1.14-1.72,2.09-2.86,2.83-1.14.75-2.41,1.26-3.8,1.55-1.39.29-2.82.3-4.27.05-1.49-.26-2.84-.75-4.04-1.47-1.2-.73-2.22-1.63-3.04-2.72-.83-1.08-1.41-2.29-1.76-3.62s-.39-2.74-.14-4.23l11.44-66.94c.25-1.46.76-2.76,1.53-3.92.77-1.16,1.73-2.11,2.87-2.86,1.14-.75,2.39-1.26,3.77-1.55,1.38-.29,2.81-.3,4.3-.05,1.46.25,2.79.74,4.01,1.47,1.22.73,2.24,1.64,3.07,2.72.83,1.08,1.41,2.3,1.76,3.65.35,1.35.39,2.75.14,4.21l-11.44,66.94ZM710.49,196.87c-.25,1.49-.77,2.81-1.54,3.95-.77,1.14-1.73,2.08-2.87,2.83-1.14.75-2.4,1.26-3.8,1.55s-2.82.3-4.27.05c-1.49-.25-2.84-.75-4.04-1.48-1.2-.73-2.21-1.63-3.04-2.72-.83-1.08-1.41-2.29-1.76-3.62-.35-1.33-.39-2.74-.14-4.24l11.44-66.94c.25-1.46.76-2.76,1.53-3.92s1.73-2.11,2.87-2.86c1.14-.75,2.39-1.26,3.77-1.55,1.38-.29,2.81-.31,4.3-.05,1.46.25,2.79.74,4.01,1.47s2.24,1.64,3.07,2.72c.83,1.08,1.41,2.3,1.76,3.65.34,1.35.39,2.75.14,4.21l-11.44,66.94Z" style="fill:#fff; stroke-width:0px;"/><path d="M784.07,178.63c-2.55,1.06-5.06,1.72-7.53,1.98-2.47.26-4.74.42-6.8.48-2.52.06-5.04.11-7.56.17-2.52.06-4.82.28-6.89.65-2.07.38-3.79.98-5.17,1.81-1.38.83-2.21,2.05-2.49,3.68-.3,1.76-.17,3.31.41,4.65.57,1.34,1.42,2.47,2.53,3.41,1.11.94,2.41,1.69,3.88,2.26,1.47.57,2.97.98,4.5,1.24.54.09,1.14.18,1.79.25.65.08,1.32.12,2.02.14,1.19,0,2.29.18,3.3.56s1.91.91,2.69,1.58c.77.67,1.39,1.5,1.85,2.49s.69,2.07.7,3.26c.01,1.15-.18,2.24-.58,3.25-.4,1.01-.95,1.9-1.66,2.67s-1.54,1.38-2.49,1.85c-.95.46-1.99.72-3.12.78-1.93.09-3.77.1-5.5.03-1.73-.07-3.46-.25-5.19-.55-4.17-.71-8.04-1.83-11.62-3.35s-6.61-3.52-9.1-6c-2.49-2.48-4.28-5.47-5.38-8.95-1.1-3.48-1.25-7.55-.46-12.19.52-3.01,1.39-5.61,2.61-7.79,1.23-2.18,2.77-4.03,4.64-5.56,1.87-1.53,4.04-2.76,6.52-3.7,2.48-.94,5.25-1.67,8.3-2.19,3.05-.53,6.36-.88,9.91-1.08,3.56-.19,7.36-.29,11.4-.3,2.13-.02,4.23-.11,6.3-.28,2.07-.17,3.94-.49,5.6-.95,1.67-.46,3.05-1.11,4.15-1.93,1.1-.82,1.76-1.9,1.99-3.22.35-2.07.21-3.76-.44-5.1-.65-1.33-1.6-2.42-2.87-3.26-1.27-.84-2.75-1.49-4.43-1.93-1.68-.45-3.39-.82-5.12-1.11-1.83-.31-3.56-.47-5.2-.47-1.64,0-3.16.21-4.55.63s-2.71,1.09-3.92,2c-1.22.91-2.33,2.13-3.32,3.67-.8,1.22-1.75,2.26-2.86,3.1-1.1.84-2.3,1.45-3.58,1.82-1.28.37-2.65.49-4.09.35-1.44-.14-2.9-.58-4.38-1.32-1.35-.65-2.45-1.55-3.28-2.71-.83-1.15-1.4-2.41-1.71-3.77-.31-1.36-.36-2.76-.14-4.21.21-1.45.71-2.82,1.49-4.11,2.05-3.42,4.5-6.15,7.37-8.21,2.86-2.06,6-3.56,9.43-4.51,3.42-.95,7.08-1.42,10.97-1.42,3.89,0,7.88.35,11.98,1.05,2.71.46,5.41,1.09,8.1,1.88,2.69.79,5.24,1.79,7.65,3.01,2.41,1.21,4.61,2.66,6.61,4.35,2,1.68,3.65,3.64,4.96,5.87,1.31,2.23,2.21,4.77,2.7,7.63s.43,6.05-.17,9.57l-8.85,51.79c-.25,1.46-.76,2.75-1.53,3.87-.77,1.12-1.7,2.06-2.8,2.79-1.1.74-2.33,1.24-3.69,1.52-1.36.27-2.76.29-4.22.04s-2.78-.73-3.96-1.44c-1.19-.71-2.18-1.59-2.97-2.65s-1.37-2.25-1.72-3.56-.4-2.7-.15-4.16l5.15-30.14Z" style="fill:#fff; stroke-width:0px;"/><path d="M805.84,97.81c.65-.97,1.46-1.76,2.42-2.36s1.98-1,3.06-1.2,2.18-.19,3.29.04,2.15.66,3.12,1.32c.94.65,1.71,1.45,2.31,2.41.6.96,1,1.97,1.18,3.03s.17,2.15-.04,3.26c-.21,1.12-.66,2.16-1.34,3.12-1.52,2.15-3.41,4.07-5.67,5.78-2.26,1.71-4.87,3.06-7.84,4.08s-6.28,1.64-9.95,1.88c-3.67.24-7.65,0-11.96-.74l-7.17-1.23c-.98-.17-1.84-.5-2.58-.99-.73-.49-1.32-1.1-1.75-1.82s-.73-1.52-.87-2.4c-.15-.88-.14-1.79.02-2.74l1.18-6.91-2.44-.42c-.95-.16-1.78-.49-2.5-.98-.72-.49-1.3-1.09-1.76-1.82-.45-.72-.76-1.52-.92-2.41-.16-.88-.16-1.8,0-2.75s.47-1.81.91-2.59c.45-.78,1-1.43,1.67-1.96.67-.53,1.42-.91,2.26-1.13.84-.22,1.74-.25,2.68-.09l12.35,2.11c.95.16,1.78.49,2.5.98.72.49,1.3,1.1,1.76,1.82.45.72.76,1.52.92,2.41.16.88.16,1.8,0,2.75l-1,5.84c1.85.21,3.59.21,5.24-.02,1.64-.22,3.15-.63,4.52-1.21s2.6-1.31,3.69-2.17c1.09-.86,1.99-1.82,2.69-2.89Z" style="fill:#fff; stroke-width:0px;"/><path d="M845.53,231.35c-3.93-.67-7.47-1.78-10.63-3.33-3.15-1.55-5.9-3.46-8.25-5.73s-4.29-4.86-5.84-7.77c-1.54-2.91-2.67-6.05-3.39-9.42-.31-1.45-.31-2.87,0-4.26.31-1.39.85-2.66,1.62-3.8.77-1.14,1.75-2.11,2.93-2.9,1.18-.79,2.51-1.32,3.99-1.59,1.48-.27,2.91-.24,4.3.08,1.39.33,2.65.89,3.77,1.69,1.12.8,2.06,1.79,2.81,2.97.76,1.18,1.26,2.5,1.49,3.97.26,1.72.71,3.26,1.35,4.63.64,1.37,1.41,2.53,2.3,3.51.9.97,1.91,1.77,3.05,2.38,1.13.61,2.34,1.03,3.63,1.25,2.34.4,4.53.24,6.57-.47,2.04-.71,3.89-2.03,5.54-3.94,1.65-1.91,3.1-4.47,4.34-7.65,1.24-3.19,2.25-7.05,3.03-11.59.77-4.51,1.1-8.48.99-11.92-.11-3.44-.62-6.36-1.54-8.76-.92-2.41-2.21-4.29-3.9-5.66s-3.69-2.25-6.03-2.65c-1.29-.22-2.56-.23-3.82-.02s-2.48.62-3.66,1.23c-1.19.62-2.3,1.46-3.34,2.54-1.04,1.08-1.97,2.38-2.79,3.92-.71,1.31-1.62,2.39-2.73,3.25-1.11.86-2.32,1.48-3.64,1.86-1.32.38-2.69.5-4.11.34-1.42-.16-2.78-.61-4.08-1.35-1.3-.75-2.38-1.69-3.23-2.83-.85-1.14-1.46-2.38-1.83-3.71-.36-1.33-.46-2.71-.29-4.13.17-1.42.65-2.76,1.42-4.02,1.79-2.94,3.93-5.52,6.42-7.74,2.49-2.23,5.24-4,8.26-5.34,3.02-1.33,6.25-2.21,9.71-2.63,3.45-.42,7.06-.31,10.82.33,6.33,1.08,11.65,3.1,15.94,6.05,4.29,2.95,7.63,6.64,10.01,11.07s3.84,9.52,4.38,15.26c.54,5.74.23,11.97-.92,18.68-1.15,6.71-2.93,12.68-5.34,17.92-2.41,5.24-5.48,9.54-9.19,12.92-3.72,3.38-8.08,5.72-13.11,7.04-5.02,1.32-10.7,1.44-17.04.36Z" style="fill:#fff; stroke-width:0px;"/></g><g style="filter:url(#drop-shadow-2);"><path d="M60.47,177.07c-4.36,1.73-7.99,3.84-10.89,6.34-2.89,2.5-5.1,5.31-6.62,8.45-1.52,3.13-2.42,6.59-2.69,10.36-.27,3.78.02,7.83.86,12.17l.52,2.69c.39,2.03.37,3.97-.08,5.82-.45,1.85-1.21,3.53-2.29,5.04-1.08,1.51-2.44,2.78-4.07,3.8s-3.47,1.74-5.5,2.13c-2.03.39-3.99.42-5.9.08-1.9-.34-3.64-1.01-5.2-2-1.56-.99-2.89-2.27-3.97-3.82-1.09-1.55-1.82-3.34-2.22-5.37L1.37,165.85c-.84-4.34-1.3-8.7-1.36-13.06-.07-4.37.38-8.63,1.34-12.78.96-4.15,2.51-8.1,4.67-11.85,2.16-3.75,5.05-7.2,8.67-10.35s8.04-5.92,13.26-8.3c5.22-2.38,11.39-4.27,18.51-5.65,7.03-1.37,13.4-1.92,19.1-1.66,5.71.26,10.81,1.18,15.3,2.76,4.49,1.57,8.43,3.7,11.81,6.37,3.38,2.67,6.28,5.76,8.7,9.25,2.42,3.5,4.4,7.29,5.95,11.37,1.55,4.08,2.75,8.29,3.59,12.63l11.05,56.9c.39,2.03.37,3.97-.08,5.82-.45,1.85-1.22,3.53-2.33,5.04-1.1,1.51-2.48,2.78-4.14,3.82-1.66,1.03-3.5,1.74-5.53,2.14-2.03.39-4.01.42-5.93.09-1.93-.34-3.68-1-5.27-1.99-1.59-.99-2.94-2.26-4.04-3.8-1.11-1.55-1.86-3.33-2.25-5.36l-11.51-59.24c-.53-2.74-1.53-5.42-3-8.05-1.47-2.63-3.41-4.87-5.82-6.73-2.42-1.86-5.34-3.18-8.78-3.99-3.44-.8-7.4-.77-11.88.11-4.48.87-8.21,2.33-11.19,4.38-2.98,2.05-5.3,4.4-6.97,7.04-1.66,2.65-2.73,5.48-3.2,8.48-.47,3-.44,5.88.09,8.61l2.15,11.04c2.24-3.32,4.77-6.24,7.59-8.75s6.08-4.68,9.78-6.53c1.62-.76,3.28-1.15,4.98-1.19,1.71-.04,3.34.23,4.89.81,1.56.58,2.96,1.43,4.21,2.56,1.25,1.13,2.25,2.5,3,4.12.76,1.66,1.18,3.36,1.25,5.08.06,1.72-.19,3.38-.76,4.96-.57,1.58-1.44,3-2.59,4.25-1.15,1.25-2.55,2.21-4.18,2.87Z" style="fill:#fff; stroke-width:0px;"/><path d="M73.27,49.43c.38-1.59,1.04-3.02,2-4.28.96-1.26,2.09-2.29,3.4-3.08,1.31-.79,2.75-1.32,4.32-1.57,1.57-.26,3.15-.2,4.74.18,1.54.38,2.95,1.05,4.21,2.01,1.26.95,2.28,2.08,3.04,3.37.77,1.3,1.29,2.73,1.57,4.29.28,1.56.21,3.14-.22,4.74-.92,3.56-2.44,7.01-4.56,10.36-2.12,3.35-4.86,6.41-8.24,9.2-3.38,2.79-7.4,5.25-12.08,7.38-4.68,2.13-10.01,3.78-16,4.95l-9.98,1.94c-1.37.27-2.65.26-3.86-.02-1.2-.28-2.27-.78-3.19-1.51-.92-.73-1.7-1.63-2.32-2.71-.62-1.08-1.07-2.28-1.32-3.6l-1.87-9.62-3.4.66c-1.32.26-2.57.24-3.75-.04-1.18-.29-2.25-.79-3.19-1.51-.95-.72-1.75-1.62-2.4-2.69-.65-1.07-1.1-2.27-1.36-3.59-.26-1.32-.28-2.6-.08-3.84.2-1.24.6-2.37,1.21-3.39.61-1.02,1.41-1.89,2.4-2.6.99-.71,2.14-1.19,3.47-1.45l17.2-3.34c1.32-.26,2.57-.24,3.75.04,1.18.29,2.25.79,3.19,1.51.95.72,1.75,1.62,2.4,2.69.65,1.07,1.1,2.27,1.36,3.59l1.58,8.14c2.52-.64,4.8-1.51,6.84-2.62,2.04-1.11,3.81-2.38,5.32-3.82,1.51-1.44,2.76-3,3.76-4.66,1-1.66,1.7-3.37,2.09-5.11Z" style="fill:#fff; stroke-width:0px;"/><path d="M126.02,104.33c-.39-2.03-.38-3.98.04-5.85.42-1.87,1.17-3.55,2.25-5.06,1.08-1.51,2.44-2.79,4.1-3.85,1.66-1.05,3.5-1.78,5.53-2.17,2.03-.39,4.01-.41,5.94-.05,1.93.36,3.68,1.04,5.24,2.03,1.56,1,2.89,2.28,3.98,3.85,1.09,1.58,1.83,3.38,2.23,5.41l12.47,64.19c.54,2.78,1.46,5.18,2.75,7.18,1.29,2,2.88,3.59,4.75,4.77,1.87,1.18,4,1.94,6.39,2.28,2.39.34,4.98.24,7.76-.29,4.77-.93,8.79-2.45,12.07-4.59,3.28-2.13,5.85-4.71,7.71-7.74,1.86-3.03,3.03-6.43,3.53-10.2.49-3.77.33-7.75-.49-11.95l-10.24-52.73c-.39-2.03-.37-3.98.07-5.85.44-1.87,1.22-3.56,2.32-5.08,1.1-1.51,2.48-2.79,4.14-3.85,1.65-1.06,3.5-1.78,5.53-2.17,2.03-.39,4.01-.41,5.94-.05,1.93.36,3.68,1.04,5.24,2.03,1.56.99,2.9,2.28,4.01,3.85,1.11,1.57,1.87,3.37,2.26,5.4l18.34,94.41c.38,1.98.37,3.87-.04,5.66-.41,1.79-1.14,3.42-2.18,4.87-1.04,1.45-2.36,2.67-3.95,3.67-1.6,1-3.38,1.69-5.36,2.07-1.98.38-3.9.41-5.75.09-1.85-.33-3.53-.97-5.04-1.92s-2.8-2.19-3.88-3.69c-1.08-1.5-1.81-3.25-2.19-5.23l-.28-1.42c-3.92,5.8-8.41,10.54-13.47,14.22-5.06,3.68-10.59,6.1-16.58,7.26-8.12,1.58-15.17,1.92-21.17,1.03-6-.89-11.11-2.86-15.32-5.91-4.22-3.05-7.62-7.11-10.23-12.19-2.6-5.08-4.56-11.01-5.88-17.81l-12.55-64.62Z" style="fill:#fff; stroke-width:0px;"/><path d="M224.94,34.36c.4-4.73,1.49-8.99,3.25-12.79s4.02-7.1,6.78-9.91c2.76-2.81,5.9-5.11,9.42-6.9,3.52-1.79,7.19-3.05,11.01-3.79,4.2-.82,8.36-1.12,12.49-.92,4.13.2,7.92,1.06,11.37,2.56,3.45,1.51,6.42,3.74,8.9,6.68,2.48,2.95,4.18,6.75,5.08,11.43.31,1.61.4,3.15.28,4.65-.13,1.49-.39,2.96-.79,4.41-.4,1.45-.92,2.88-1.55,4.3-.63,1.42-1.3,2.84-2,4.25-.8,1.67-1.6,3.36-2.4,5.05-.8,1.7-1.47,3.46-2.02,5.28-.55,1.82-.92,3.75-1.11,5.8-.19,2.04-.11,4.23.25,6.56l18.3,94.2,2.97-.58c1.65-.32,3.23-.3,4.75.07s2.88,1,4.08,1.89,2.23,2.02,3.08,3.37c.85,1.35,1.44,2.86,1.76,4.51.32,1.65.34,3.26.06,4.84-.28,1.57-.81,3-1.59,4.27-.78,1.28-1.81,2.37-3.07,3.28-1.27.91-2.73,1.52-4.38,1.84l-20.88,4.06c-1.65.32-3.24.3-4.75-.07-1.52-.37-2.88-1-4.08-1.89s-2.23-2.02-3.08-3.37c-.85-1.35-1.44-2.86-1.76-4.51l-20.64-106.23c-.5-2.55-.61-5.02-.34-7.42.27-2.4.77-4.71,1.52-6.94.74-2.22,1.63-4.35,2.65-6.39,1.02-2.04,2.04-3.98,3.05-5.85,1.46-2.58,2.64-4.94,3.54-7.08.91-2.13,1.19-4.07.85-5.82-.08-.42-.25-.93-.51-1.52-.26-.59-.66-1.11-1.19-1.57-.53-.46-1.21-.8-2.04-1.04-.83-.23-1.86-.23-3.08.01-2.74.53-4.93,2.05-6.57,4.54s-2.6,5.49-2.85,8.96c-.15,1.75-.62,3.33-1.39,4.75-.78,1.42-1.78,2.64-3,3.67-1.22,1.02-2.62,1.79-4.18,2.32-1.56.53-3.22.71-4.96.56-1.69-.16-3.27-.62-4.71-1.4-1.45-.77-2.68-1.77-3.7-2.99-1.02-1.22-1.78-2.62-2.28-4.18-.5-1.57-.67-3.22-.52-4.97Z" style="fill:#fff; stroke-width:0px;"/><path d="M380.88,129.73c.38-2.32.8-4.88,1.26-7.66.46-2.78.9-5.62,1.32-8.52.42-2.89.8-5.77,1.15-8.63.35-2.86.62-5.54.82-8.05.2-2.51.31-4.77.33-6.79.03-2.01-.08-3.63-.32-4.86-1.21-6.23-3.78-10.81-7.7-13.74-3.92-2.93-9.21-3.76-15.87-2.46-4.34.84-7.83,2.61-10.46,5.3-2.64,2.69-4.46,6.22-5.47,10.58-.48,2.05-1.4,3.82-2.75,5.31-1.35,1.49-2.93,2.66-4.75,3.53-1.81.87-3.74,1.4-5.79,1.6s-4,.02-5.87-.55c-2.02-.59-3.8-1.49-5.34-2.71s-2.75-2.63-3.65-4.25c-.9-1.61-1.45-3.37-1.65-5.26s.05-3.84.74-5.83c1.48-4.21,3.51-8.12,6.09-11.76,2.57-3.63,5.64-6.9,9.19-9.79,3.55-2.89,7.59-5.37,12.11-7.42,4.52-2.05,9.52-3.61,14.99-4.68,3.73-.72,7.55-1.16,11.46-1.31s7.77.11,11.57.76,7.47,1.78,11.01,3.37c3.54,1.59,6.78,3.75,9.71,6.49,2.93,2.73,5.47,6.12,7.63,10.16,2.15,4.04,3.77,8.84,4.86,14.4.76,3.92,1.04,8.37.83,13.35-.21,4.99-.76,10.43-1.67,16.33-.91,5.91-2.09,12.24-3.54,19.01-1.45,6.77-3.04,13.9-4.77,21.38-1.01,4.65-3.17,8.58-6.48,11.8s-7.48,5.31-12.48,6.28c-2.55.5-5.01.65-7.4.48-2.38-.17-4.63-.67-6.75-1.48s-4.04-1.97-5.78-3.47c-1.74-1.5-3.25-3.3-4.54-5.4l-17.29-28.88-4.46.87c-1.7.33-3.31.31-4.82-.05s-2.89-1-4.12-1.92c-1.23-.91-2.27-2.04-3.12-3.4-.85-1.35-1.44-2.88-1.77-4.58s-.36-3.35-.08-4.94c.28-1.6.82-3.05,1.62-4.35.8-1.3,1.83-2.41,3.1-3.32,1.27-.91,2.75-1.53,4.45-1.86l19.04-3.7c1.7-.33,3.2-.29,4.5.12,1.3.41,2.5,1.08,3.59,2.02,1.09.94,2.1,2.09,3.02,3.45.93,1.36,1.84,2.84,2.73,4.43l11.57,20.59Z" style="fill:#fff; stroke-width:0px;"/></g></g></svg>