<?xml version="1.0" encoding="UTF-8"?><svg id="Layer_2" xmlns="http://www.w3.org/2000/svg" viewBox="0 0 149.53 138.41"><g id="Layer_1-2"><path d="M98.09,22.8c5.78,0,10.64,4.34,11.32,10.08.18,1.53.06,3.05-.37,4.52-.41,1.42-1.09,2.72-2.01,3.89-.92,1.17-2.04,2.13-3.32,2.86-1.33.75-2.77,1.23-4.31,1.41-.45.05-.9.08-1.35.08-5.78,0-10.64-4.34-11.32-10.08-.18-1.53-.06-3.05.37-4.52.41-1.42,1.09-2.73,2.01-3.89.92-1.17,2.04-2.13,3.32-2.86,1.32-.75,2.77-1.23,4.31-1.41.45-.05.91-.08,1.36-.08M98.09,14.03c-.79,0-1.59.05-2.38.14-2.71.32-5.27,1.16-7.62,2.5-2.27,1.29-4.24,2.99-5.87,5.05-1.62,2.06-2.82,4.37-3.55,6.88-.75,2.6-.98,5.29-.66,7.99,1.2,10.16,9.81,17.83,20.03,17.83.79,0,1.59-.05,2.38-.14,2.71-.32,5.27-1.16,7.62-2.5,2.27-1.29,4.24-2.99,5.87-5.05,1.62-2.06,2.82-4.37,3.54-6.88.75-2.6.98-5.29.66-7.99-1.2-10.16-9.81-17.83-20.03-17.83h0Z" style="fill:#fff; stroke-width:0px;"/><path d="M119.8,60.57c3.96,0,7.81,1.44,10.82,4.04,3.03,2.62,5.01,6.25,5.58,10.23.02.12.03.25.05.38.21,1.79.13,3.59-.23,5.34l-.06.27-.04.27c-.74,5.1-3.13,10.96-7.11,17.43-3.16,5.13-7.24,10.52-12.14,16.03-2.93,3.29-5.58,5.99-7.44,7.8-3.34-1.97-8.87-5.44-14.78-9.98-5.4-4.15-9.95-8.31-13.5-12.35-4.22-4.8-7-9.39-8.25-13.63l-.49-1.65-.21-1.3c-.03-.21-.06-.43-.09-.65-.26-2.23-.08-4.43.54-6.56.6-2.06,1.58-3.96,2.92-5.65,1.34-1.69,2.96-3.09,4.82-4.15,1.93-1.1,4.03-1.78,6.26-2.05.65-.08,1.31-.12,1.96-.12,3.07,0,6.08.86,8.72,2.49l5.94,3.68,4.92-4.97c1.01-1.02,2.15-1.9,3.4-2.64,1.97-1.16,4.14-1.88,6.44-2.15.65-.08,1.32-.12,1.97-.12M119.8,51.8c-.99,0-2,.06-2.99.18-3.51.41-6.82,1.52-9.85,3.29-1.91,1.12-3.66,2.47-5.2,4.04-3.99-2.47-8.62-3.81-13.34-3.81-.99,0-2,.06-2.99.18-3.4.4-6.62,1.45-9.57,3.14-2.85,1.62-5.33,3.75-7.37,6.34-2.04,2.58-3.54,5.49-4.45,8.64-.95,3.26-1.23,6.64-.83,10.04.04.33.08.66.14.99l-.25.03,1.2,4.04c1.62,5.47,5.01,11.17,10.08,16.93,3.93,4.47,8.89,9.02,14.75,13.52,9.89,7.6,18.85,12.4,19.23,12.6l2.18,1.16,1.85-1.65c.2-.18,4.98-4.45,10.86-11.06,5.24-5.89,9.63-11.7,13.06-17.26,4.61-7.49,7.41-14.48,8.32-20.77.56-2.68.68-5.42.36-8.16-.02-.2-.05-.4-.08-.59-.86-6.07-3.89-11.62-8.53-15.63-4.61-3.98-10.49-6.18-16.56-6.18h0Z" style="fill:#fff; stroke-width:0px;"/><path d="M50.43,45.38c-.72,0-1.45-.03-2.17-.1-3.05-.29-5.95-1.17-8.62-2.61-2.58-1.39-4.84-3.25-6.72-5.52-1.88-2.27-3.27-4.84-4.16-7.64-.91-2.9-1.23-5.91-.94-8.96.54-5.65,3.15-10.87,7.36-14.67,4.18-3.78,9.58-5.87,15.2-5.87.72,0,1.45.03,2.17.1,3.05.29,5.95,1.17,8.62,2.61,2.58,1.39,4.84,3.25,6.72,5.52,1.88,2.27,3.27,4.84,4.16,7.64.91,2.9,1.23,5.91.94,8.96-.54,5.66-3.15,10.87-7.36,14.67-4.18,3.78-9.58,5.87-15.2,5.87Z" style="fill:#fff; stroke-width:0px;"/><path d="M40.69,134.26l-2.12-1.79c-.37-.31-9.07-7.71-18.14-18.39-5.37-6.33-9.74-12.5-13-18.34-4.2-7.53-6.58-14.59-7.06-20.98l-.36-4.72.28.03c.02-.37.05-.75.08-1.12.68-7.1,3.96-13.65,9.25-18.43,5.25-4.75,12.03-7.37,19.09-7.37.9,0,1.82.04,2.73.13,3.95.38,7.7,1.54,11.14,3.45,2.18,1.21,4.17,2.69,5.94,4.4,4.6-3,10-4.62,15.53-4.62.9,0,1.82.04,2.73.13,3.77.36,7.37,1.44,10.69,3.21,3.21,1.71,6.02,3.99,8.38,6.77,2.35,2.78,4.13,5.94,5.27,9.38,1.19,3.56,1.65,7.28,1.38,11.04-.02.22-.03.45-.06.67-.29,3.09-1.08,6.07-2.32,8.88-2.49,6.7-7.22,13.71-14.06,20.85-5.08,5.3-11.28,10.64-18.43,15.87-8.02,5.87-14.29,9.44-14.55,9.59l-2.42,1.37Z" style="fill:#fff; stroke-width:0px;"/></g></svg>