<?xml version="1.0" encoding="UTF-8"?><svg id="Layer_2" xmlns="http://www.w3.org/2000/svg" viewBox="0 0 161.63 120.1"><g id="Layer_1-2"><path d="M161.58,117.4v2.69s-161.58-.09-161.58-.09v-2.69s.03-53.31.03-53.31h25.05s0,7.58,0,7.58h12.07s0-7.56,0-7.56l79.45.04v7.57s12.07,0,12.07,0v-7.57s32.93.02,32.93.02l-.03,53.31ZM153.53,112.03l.02-39.89h-16.81s0,7.56,0,7.56h-8.06s-12.07-.01-12.07-.01h-8.06s0-7.57,0-7.57l-63.34-.03v7.57s-8.06,0-8.06,0h-12.07s-8.06-.01-8.06-.01v-7.57s-8.94,0-8.94,0l-.02,39.89,145.46.08Z" style="fill:#fff; stroke-width:0px;"/><path d="M161.62,41.43v14.6s-32.93-.02-32.93-.02v-6.52s-12.07,0-12.07,0v6.52s-79.46-.04-79.46-.04v-6.52s-12.07,0-12.07,0v6.52s-25.06-.01-25.06-.01v-13.19s.01-9.29.01-9.29v-10.1s0-2.69,0-2.69l58,.03V0s45.08.02,45.08.02v20.71s58.5.03,58.5.03v2.69s0,8.61,0,8.61v9.36ZM95.06,20.73v-12.65s-28.95-.02-28.95-.02v12.65s28.95.02,28.95.02Z" style="fill:#fff; stroke-width:0px;"/></g></svg>