<?xml version="1.0" encoding="UTF-8"?><svg id="Layer_2" xmlns="http://www.w3.org/2000/svg" viewBox="0 0 131.61 124.01"><g id="Layer_1-2"><path d="M108.58,1.99c-24.43-6.85-39.07,10.25-41.93,14-2.86-3.76-20.09-22.43-43.91-13.69C-5.3,12.56-4.76,45.33,10.06,71c13.36,23.12,53.43,50.8,56.48,53,0,0,43.33-29.88,56.68-53,14.82-25.67,10.04-62.1-14.65-69.02ZM65.81,83.86h-10.62s3.24-26.32,3.24-26.32c-3.13-2.2-5.16-5.75-5.16-9.76,0-6.67,5.61-12.07,12.53-12.07h0c6.92,0,12.53,5.41,12.53,12.07,0,4.01-2.03,7.56-5.16,9.76l3.24,26.32h-10.62Z" style="fill:#fff; stroke-width:0px;"/></g></svg>