<?xml version="1.0" encoding="UTF-8"?><svg id="Layer_2" xmlns="http://www.w3.org/2000/svg" viewBox="0 0 151.09 123.26"><g id="Layer_1-2"><path d="M15.58,33.36s7.35-3.73,23.17-3.73,23.17,3.73,23.17,3.73" style="fill:#fff; stroke-width:0px;"/><path d="M61.92,36.52c-.48,0-.97-.11-1.43-.35-.05-.03-7-3.38-21.74-3.38s-21.69,3.36-21.76,3.39c-1.55.77-3.45.14-4.22-1.42-.77-1.55-.16-3.43,1.39-4.22.33-.16,8.21-4.07,24.6-4.07s24.28,3.9,24.61,4.07c1.55.79,2.17,2.69,1.37,4.24-.56,1.09-1.67,1.72-2.81,1.72Z" style="fill:#fff; stroke-width:0px;"/><path d="M15.58,75.98s7.35-3.73,23.17-3.73,23.17,3.73,23.17,3.73" style="fill:#fff; stroke-width:0px;"/><path d="M61.92,79.13c-.48,0-.97-.11-1.43-.35-.05-.03-7-3.38-21.74-3.38s-21.69,3.36-21.76,3.39c-1.55.76-3.45.14-4.22-1.42-.77-1.55-.16-3.43,1.39-4.22.33-.16,8.21-4.07,24.6-4.07s24.28,3.9,24.61,4.07c1.55.79,2.17,2.69,1.37,4.24-.56,1.09-1.67,1.72-2.81,1.72Z" style="fill:#fff; stroke-width:0px;"/><path d="M15.58,54.67s7.35-3.73,23.17-3.73,23.17,3.73,23.17,3.73" style="fill:#fff; stroke-width:0px;"/><path d="M61.92,57.83c-.48,0-.97-.11-1.43-.35-.05-.03-7-3.38-21.74-3.38s-21.69,3.36-21.76,3.39c-1.55.77-3.45.14-4.22-1.42-.77-1.55-.16-3.43,1.39-4.22.33-.16,8.21-4.07,24.6-4.07s24.28,3.9,24.61,4.07c1.55.79,2.17,2.69,1.37,4.24-.56,1.09-1.67,1.72-2.81,1.72Z" style="fill:#fff; stroke-width:0px;"/><path d="M15.58,97.29s7.35-3.73,23.17-3.73,23.17,3.73,23.17,3.73" style="fill:#fff; stroke-width:0px;"/><path d="M61.92,100.44c-.48,0-.97-.11-1.43-.35-.05-.03-7-3.38-21.74-3.38s-21.69,3.36-21.76,3.39c-1.55.76-3.45.14-4.22-1.42-.77-1.55-.16-3.43,1.39-4.22.33-.16,8.21-4.07,24.6-4.07s24.28,3.9,24.61,4.07c1.55.79,2.17,2.69,1.37,4.24-.56,1.09-1.67,1.72-2.81,1.72Z" style="fill:#fff; stroke-width:0px;"/><path d="M89.01,40.5c2.41,3.66,12.96,12.48,15.18,12.48s12.72-8.78,15.15-12.48c1.21-1.84,2.07-3.86,1.92-6.51-.25-4.71-4.1-8.59-8.81-8.59s-7.58,5.17-8.27,5.17c-.61,0-3.43-5.17-8.28-5.17s-8.56,3.89-8.81,8.59c-.14,2.66.72,4.68,1.92,6.51Z" style="fill:#fff; stroke-width:0px;"/><path d="M104.01,87.11c2.41,3.66,12.96,12.48,15.18,12.48s12.72-8.78,15.15-12.48c1.21-1.84,2.07-3.86,1.92-6.51-.25-4.71-4.1-8.59-8.81-8.59s-7.58,5.17-8.27,5.17c-.61,0-3.43-5.17-8.28-5.17s-8.56,3.89-8.81,8.59c-.14,2.66.72,4.68,1.92,6.51Z" style="fill:#fff; stroke-width:0px;"/><path d="M145.51,3.97s-12.07-3.97-32.19-3.97c-10.02,0-30.92,3.49-37.7,3.49-3.97,0-27.77-3.49-37.84-3.49C17.71,0,5.58,3.97,5.58,3.97c-3.07.46-5.58,3.37-5.58,6.47v107.17c0,3.1,2.54,5.64,5.64,5.64,0,0,12.35-1.13,31.81-1.13h75.54c20.66,0,20.1,1.13,32.45,1.13,3.1,0,5.64-2.54,5.64-5.64V10.45c0-3.1-2.51-6.01-5.58-6.47ZM71.15,109.9c0,2.67-2.19,4.86-4.86,4.86-10.65,0-10.16-.97-27.98-.97-16.78,0-27.43.97-27.43.97-2.67,0-4.86-2.19-4.86-4.86V17.5c0-2.67,2.16-5.19,4.81-5.58,0,0,10.46-3.43,27.75-3.43s27.76,3.43,27.76,3.43c2.64.39,4.81,2.91,4.81,5.58v92.4ZM145.07,109.9c0,2.67-2.19,4.86-4.86,4.86-10.65,0-10.16-.97-27.98-.97-16.78,0-27.43.97-27.43.97-2.67,0-4.86-2.19-4.86-4.86V17.5c0-2.67,2.16-5.19,4.81-5.58,0,0,10.46-3.43,27.76-3.43s27.76,3.43,27.76,3.43c2.65.39,4.81,2.91,4.81,5.58v92.4Z" style="fill:#fff; stroke-width:0px;"/></g></svg>