<?xml version="1.0" encoding="UTF-8"?><svg id="Layer_2" xmlns="http://www.w3.org/2000/svg" viewBox="0 0 700.09 529.06"><g id="Layer_1-2"><rect x="638.68" y="449.95" width="48.79" height="76.95" rx="12.52" ry="12.52" transform="translate(393.48 -289.75) rotate(34.52)" style="fill:#f2df2f; stroke-width:0px;"/><path d="M666.69,457.47c.67,0,1.31.2,1.87.58l20.92,14.39c1.51,1.04,1.89,3.1.85,4.61l-28.12,40.89c-.62.9-1.64,1.44-2.74,1.44-.67,0-1.31-.2-1.87-.58l-20.92-14.39c-1.51-1.04-1.89-3.1-.85-4.61l28.12-40.89c.62-.9,1.64-1.44,2.74-1.44M666.69,452.47c-2.65,0-5.25,1.26-6.86,3.6l-28.12,40.89c-2.6,3.78-1.64,8.96,2.14,11.56l20.92,14.39c1.44.99,3.08,1.46,4.7,1.46,2.65,0,5.25-1.26,6.86-3.6l28.12-40.89c2.6-3.78,1.64-8.96-2.14-11.56l-20.92-14.39c-1.44-.99-3.08-1.46-4.7-1.46h0Z" style="fill:#fff; stroke-width:0px;"/><path d="M375.37,498.96c14.78-2.27,24.65-10.61,28.77-25.24,1.51-5.36,1.91-10.84,1.89-16.39-.03-11.34-.01-22.68,0-34.03,0-11.34,0-22.68,0-34.03,0-4.33-.12-8.65-.97-12.92-3.34-16.7-12.83-28.22-28.81-34.26-6.22-2.35-12.74-3.08-19.33-3.12-11.34-.07-22.68-.01-34.02-.02-5.39,0-10.72.52-16,1.57-22.75,4.54-38.52,23.22-39.17,46.43-.1,3.59-.1,3.62,3.75,3.65,5.22.04,10.45.07,15.67-.02,2.2-.04,5.01,1,6.45-.59,1.18-1.29.87-3.95,1.21-5.99,2.02-11.91,11.22-20.71,23.22-21.1,13.86-.45,27.75-.26,41.62-.11,6.38.07,11.38,3.23,15.08,8.37,3.06,4.25,4.48,9.06,4.49,14.28.01,24.77,0,49.55,0,74.32,0,2.56-.38,5.06-1.1,7.5-1.73,5.82-5.54,9.17-11.58,9.51-5.8.33-11.63.16-17.45.26-1.69.03-2.48-.64-2.38-2.37.06-1.04,0-2.09,0-3.13,0-14.77.07-29.55-.02-44.32-.09-13.9-8.24-24.5-21.4-27.93-7.08-1.84-14.23-1.77-21.18.52-9.79,3.23-16.15,9.9-18.66,19.98-1.02,4.09-1.03,8.3-.53,12.46,1.37,11.45,7.48,19.2,18.35,23.13,4.58,1.66,9.33,1.81,14.13,1.55,3.13-.17,3.2-.09,3.23,3.14.05,6.12,0,12.24.02,18.36,0,2.39-.02,4.78.55,7.12,2,8.21,8.32,13.7,18,14.04,12.06.43,24.21,1.2,36.2-.64ZM315.34,441.39c-8.07-.17-13.32-5.58-13.29-13.71.02-8.1,5.36-13.5,13.41-13.57,8.38-.07,13.62,5.2,13.6,13.69-.02,8.48-5.35,13.76-13.72,13.58Z" style="fill:#fff; stroke-width:0px;"/><path d="M263.7,388.57c.71-8.72-3.37-14.99-10.29-19.46-2.78-1.8-3.56-3.62-3.54-6.77.14-24.32.07-48.65.07-72.97,0-4.63-.08-9.25.03-13.88.05-2.11-.65-2.91-2.81-2.87-6.12.11-12.24,0-18.35.05-3.06.02-3.07.09-3.16,3.35-.02.89,0,1.79,0,2.69,0,25.67,0,51.33,0,77,0,1.04-.03,2.09,0,3.13.04,1.36-.33,2.3-1.9,2.43-.88.07-1.74.4-2.61.59-18.73,4.05-35.32,12.42-49.97,24.73-.72.61-1.21,1.79-2.73,1.35v-4.41c0-16.56,0-33.13,0-49.69,0-12.24.09-24.47-.03-36.71-.13-13.09-7.59-22.8-19.82-25.97-6.65-1.73-13.35-1.62-19.85.58-9.38,3.16-15.16,9.74-17.24,19.43-.69,3.22-.62,6.53-.4,9.81.82,12.4,9.56,21.72,21.83,23.59,3.69.56,7.33.29,11.1.01.1.84.22,1.42.22,2,.01,8.36.01,16.71.01,25.07,0,20.44,0,40.89,0,61.33,0,3.86-.25,3.74,3.56,3.73,4.92-.01,9.85-.15,14.77.06,2.63.11,4.33-.77,6.08-2.75,10.78-12.21,23.35-22.12,38.26-28.89,1.04-.23,1.53.11,1.29,1.22-.34,2.97-.5,5.96-.19,8.94.95,9.27,5.38,16.33,13.71,20.67,6.89,3.59,14.23,4.21,21.75,2.58,10.97-2.37,17.82-9.08,20.6-19.94.33-1.29.86-2.74.21-3.93-1.12-2.02-.73-4.1-.57-6.12ZM139.41,310.12c-7.55-.07-12.14-4.79-12.11-12.45.03-7.83,4.87-12.68,12.54-12.57,7.42.11,12.13,4.97,12.17,12.55.04,7.76-4.79,12.53-12.6,12.46ZM236.13,404.18c-7.45.03-12.49-5.09-12.47-12.67.02-7.68,4.89-12.52,12.56-12.48,7.68.03,12.24,4.83,12.15,12.77-.09,7.43-4.95,12.35-12.24,12.38Z" style="fill:#fff; stroke-width:0px;"/><path d="M105.29,245.62c-4.1.01-4.12.02-4.69,3.95-.94,6.4-2.79,12.49-6.16,18.06-6.4,10.57-16.15,15.24-28.17,16.2.04-.41,0-.58.07-.7.49-.91,1-1.81,1.51-2.72,3.57-6.4,5.36-13.22,4.98-20.57-.43-8.23-5.56-14.65-13.5-17.01-3.06-.91-6.17-1.01-9.3-.83-9.9.59-17.19,7.3-18.26,17.02-1.12,10.25,4.85,17.97,14.04,19.8,2.51-.02,5.02-.07,7.52-.06.56,0,1.27.18.81,1.02-.19.34-.65.52-.99.77h0c-4.57,3.8-10.07,4.91-15.75,5.56-5.91.68-5.91.72-5.78,6.53.07,3.4.07,3.46,3.39,3.93,8.13,1.16,16.31,1.63,24.52,1.66,5.83.02,11.61-.47,17.34-1.59,28.17-5.51,41.26-27.8,41.78-51.03-4.45,0-8.9,0-13.35,0ZM52.17,269.75c-5.13.04-8.58-3.16-8.74-8.11-.16-5.14,3.33-8.8,8.49-8.86,5.22-.07,8.93,3.38,9.03,8.39.11,5.03-3.48,8.53-8.78,8.58Z" style="fill:#fff; stroke-width:0px;"/><path d="M262.65,132.16c4.95-.28,4.95-.42,4.95,4.62,0,57.02,0,114.03,0,171.05,0,1.19.08,2.39-.01,3.58-.17,2.16.81,2.87,2.89,2.84,5.82-.08,11.65-.18,17.46.04,2.84.1,4.64-.87,6.48-2.99,8.94-10.35,19.39-18.97,31.07-26.08,3.93-2.39,7.95-4.63,12.84-6.57-.56,4.12-.84,7.66-.6,11.24.82,12.52,8.61,22.24,20.71,25.74,6.6,1.91,13.25,2,19.89.28,13.59-3.51,22.1-14.81,21.96-29.5-.1-10.46-3.77-19.37-13.08-24.95-2.91-1.74-3.57-3.61-3.56-6.74.1-45.08.07-90.15.07-135.23,0-1.04-.08-2.1.01-3.13.17-1.92-.58-2.62-2.55-2.59-5.97.1-11.94-.02-17.91.05-7.01.07-6.07-1.04-6.07,6.2-.03,42.84-.01,85.68-.02,128.51,0,4.3-.01,4.32-3.27,4.98-21.36,4.29-40.23,13.69-56.84,27.72-.74.62-1.28,1.7-2.93,1.44v-4.7c0-57.76,0-115.53,0-173.29,0-2.09.04-4.19-.15-6.26-.72-7.94-3.97-14.61-10.18-19.72-11.51-9.44-32.06-9.17-43.22.64-7.69,6.76-9.89,15.57-9.53,25.45.56,15.47,12.52,28.46,31.6,27.38ZM368.74,272.57c8.22.05,13.52,5.56,13.48,14.01-.04,8.33-5.47,13.78-13.71,13.75-8.13-.03-13.6-5.65-13.55-13.94.05-8.26,5.64-13.87,13.77-13.83ZM262.66,88.6c8.5.03,13.48,5.09,13.49,13.72,0,8.49-5.13,13.6-13.66,13.57-8.52-.03-13.5-5.12-13.44-13.74.06-8.66,5-13.58,13.6-13.55Z" style="fill:#fff; stroke-width:0px;"/><path d="M98.58,228.68c6.5-14.57,13.16-29.07,19.78-43.58.61-1.34.95-2.84,2.09-3.87.17.03.32.01.43.07.25.15.51.31.72.51,8.75,8.36,19.08,9.3,29.97,5.8,12.89-4.13,19.62-16.39,17.83-31.44-1.52-12.81-11.66-22.2-24.94-23.47-13.31-1.27-23.24,3.62-29.75,15.39-1.95,3.53-3.67,7.16-5.21,10.88-4.14,10.06-8.27,20.13-12.43,30.19-.56,1.35-.84,2.86-2.71,4.73v-5.23c0-20,0-40.01,0-60.01,0-1.19-.02-2.39.02-3.58.63-18.47,12.37-29.84,30.9-29.89,10.3-.03,20.6-.07,30.9.01,12.88.1,22.5,7.62,25.85,20.02,1.18,4.37,1.34,8.84,1.35,13.32.01,32.54,0,65.08,0,97.63,0,1.04.09,2.1-.01,3.13-.22,2.28.63,3.14,3.01,3.09,6.27-.14,12.54-.02,18.81-.05,5.34-.03,4.72.59,4.72-4.83.02-33.89.01-67.77,0-101.66,0-2.09,0-4.19-.17-6.26-.92-10.8-4.23-20.72-11.22-29.17-10.39-12.55-24.05-18.26-40.05-18.59-12.09-.25-24.18-.05-36.27-.05-2.69,0-5.35.32-8.01.71-26.56,3.92-44.57,23.64-44.85,50.38-.38,35.37-.11,70.76-.1,106.13,0,3.27.07,3.31,3.58,3.33,6.72.03,13.44-.19,20.15.1,3.13.14,4.43-1.11,5.61-3.75ZM140.69,147.75c8.18.22,13.16,5.58,12.9,13.88-.25,7.98-5.89,13.22-13.98,12.99-7.91-.22-13.21-5.99-12.94-14.06.27-8.12,5.65-13.03,14.01-12.81Z" style="fill:#fff; stroke-width:0px;"/><path d="M448.82,450.14c21.19.02,42.38.02,63.57,0,2.83,0,5.69,0,8.49-.33,15.2-1.76,25.7-9.6,30.76-24.23,1.77-5.12,2.36-10.44,2.35-15.86-.02-24.33,0-48.65-.02-72.98,0-1.94-.05-3.89-.25-5.81-1.2-11.38-5.52-21.28-13.98-29.19-8.96-8.38-19.87-11.93-31.85-12.15-14.02-.26-28.05-.13-42.08-.02-5.98.05-11.88,1.04-17.62,2.76-19.89,5.95-33.08,23.01-33.51,43.26-.07,3.23-.07,3.31,3.08,3.34,6.42.06,12.83,0,19.25.03,2.61.02,3.51.32,3.93-3.76.98-9.58,6.31-16.16,15.16-19.92,3.63-1.54,7.48-2.21,11.34-2.25,12.98-.13,25.97-.22,38.95,0,9.83.17,16.83,5.83,19.74,15.28,1.11,3.6,1.42,7.3,1.42,11.05,0,22.53,0,45.07-.02,67.6,0,1.78-.08,3.58-.3,5.35-1.47,11.69-5.38,15.18-17.25,15.22-17.76.05-35.52.01-53.27.01-.6,0-1.2-.04-1.79,0-1.62.1-2.48-.44-2.46-2.26.06-6.55.02-13.09.02-20.15,1.48.26,2.34.46,3.23.55,14.02,1.36,30.36-4.85,32.32-25.12,1.51-15.63-6.94-27.7-20.68-31.51-6.75-1.87-13.57-1.88-20.34-.05-11.55,3.13-19.08,11.88-20.64,23.79-.31,2.37-.47,4.74-.46,7.14.02,15.97.02,31.94,0,47.91,0,2.4.16,4.77.57,7.12,1.4,8.14,7.45,13.95,15.67,14.88,2.22.25,4.47.28,6.7.29ZM457.2,363.81c8.09.04,13.37,5.38,13.38,13.52,0,8.15-5.23,13.34-13.48,13.36-8.17.01-13.49-5.33-13.39-13.45.1-8.18,5.41-13.47,13.49-13.43Z" style="fill:#fff; stroke-width:0px;"/><path d="M647.55,395.93c3.45,0,6.88-.23,10.24-.85,11.77-2.17,20.02-8.74,24.36-20.02,2.07-5.38,2.64-10.98,2.63-16.69-.03-20.45-.01-40.9-.01-61.35,0-12.84,0-25.67,0-38.51,0-5.55.36-4.92-5.15-4.95-4.63-.03-9.25-.02-13.88,0-5.1.01-4.72-.42-4.72,4.93,0,32.39,0,64.78-.02,97.17,0,2.08-.08,4.18-.36,6.24-1.21,9.17-4.82,12.76-14,12.88-17.76.23-35.52.09-53.28.15-1.96,0-3.06-.43-2.98-2.73.15-4.32-.09-8.66.12-12.98.51-10.33,6.27-16.74,16.45-18.89,5.04-1.07,10.11-.54,15.17-.7,3.59-.11,3.6-.08,3.66-3.79.02-1.34.09-2.69-.01-4.03-.28-3.52.72-7.11-.57-10.57-3.37-.89-6.8-.36-10.2-.39-4.8-.05-9.53-.39-14.17-1.68-11.03-3.07-16.03-10.54-14.65-22.76,6.13,5.56,12.9,7.09,20.33,6.51,10.02-.77,18.46-7.13,21.51-16.33,1.34-4.03,1.51-8.19,1.18-12.39-.86-10.79-8-19.6-18.51-22.15-15.82-3.83-31.69,1.12-40.74,17.38-5.48,9.84-6.96,20.56-5.97,31.62,1.15,12.75,7.43,22.12,19.1,27.69.68.32,1.36.6,1.57,1.48-.34.24-.69.53-1.07.75-9.59,5.51-14.87,13.91-16.62,24.7-1.2,7.42-.65,14.89-.58,22.34.09,10.49,5.86,16.64,16.26,17.77,1.48.16,2.98.11,4.47.11,20.15,0,40.3-.03,60.45.03ZM601.3,265.12c7.47.03,12.48,4.89,12.46,12.11-.01,7.4-5.23,12.35-12.88,12.24-7.52-.11-12.2-4.9-12.13-12.4.07-7.34,4.94-11.97,12.55-11.95Z" style="fill:#fff; stroke-width:0px;"/><path d="M477.02,122.76c6.12.02,12.24.02,18.36,0,4.04-.01,4.04-.04,4.48-4.16,1.54-14.22,11.34-23.42,25.6-23.64,12.53-.19,25.07-.11,37.61-.03,10.04.07,17.27,5.56,20.29,15.15,1.14,3.6,1.36,7.32,1.36,11.06.02,22.39.03,44.78-.01,67.17,0,2.68-.19,5.38-.56,8.03-1.1,7.97-5.18,11.89-13.08,12.84-4.76.57-9.54.23-14.31.29-5.3.07-4.8.18-4.81-4.86,0-15.23.08-30.45-.03-45.68-.09-13.79-8.88-24.68-22.28-27.66-6.35-1.41-12.75-1.36-19.04.46-11.06,3.2-17.75,10.54-20.18,21.73-.7,3.22-.53,6.54-.35,9.82.65,12.21,8.91,22.09,20.76,25.04,3.67.91,7.37,1.01,11.11.87,3.91-.15,3.94-.13,3.95,3.7.03,6.57-.08,13.14.03,19.7.19,10.6,5.97,17.27,16.46,19.07,1.75.3,3.56.37,5.34.38,6.87.04,13.73-.02,20.6.03,4.04.03,8.05-.14,12.04-.78,14.62-2.34,24.5-10.23,28.88-24.58,1.27-4.16,1.94-8.42,1.94-12.78,0-12.84,0-25.67,0-38.51-.02,0-.05,0-.07,0,0-13.58.36-27.18-.08-40.74-.66-20.02-13.83-36.21-33.01-41.47-5.22-1.43-10.56-1.94-15.94-1.96-11.49-.05-22.99-.05-34.48,0-5.07.02-10.12.47-15.12,1.45-22.68,4.47-38.73,23.08-39.44,45.78-.13,4.24-.13,4.26,3.96,4.28ZM520.78,173.65c-8-.13-13.5-5.69-13.5-13.64,0-8.11,5.78-13.81,13.9-13.71,8.07.1,13.37,5.51,13.39,13.66.02,8.32-5.52,13.82-13.78,13.69Z" style="fill:#fff; stroke-width:0px;"/><path d="M382.19,86.16c5.83,8.16,13.98,11.14,23.72,10.83,16.22-.5,26.87-12.73,24.98-28.84-1.3-11.08-8.5-18.6-19.49-20.29-3.86-.6-7.66-.18-11.24,1.21-.74-1.33.09-2,.53-2.67,3.24-4.91,7.96-7.63,13.64-8.51,6.06-.95,12.19-1.11,18.3-.33,9.15,1.17,15.9,7.6,17.25,16.78,1.99,13.48.34,26.17-8.53,37.24-3.54,4.42-6.76,9.11-10.17,13.64-3.83,5.09-5.35,10.78-5.34,17.15.1,37.92.05,75.84.05,113.77,0,1.05-.04,2.09.02,3.13.65,13.46,8.25,22.91,20.79,25.66,3.96.87,8.01.88,12.04.42,10.5-1.22,18.55-6.31,22.04-16.43,3.68-10.65,2.62-21.01-5.76-29.49-5.73-5.8-13.03-7.54-20.95-7.12-4.59.25-4.28.49-4.29-4.24,0-.3,0-.6,0-.9,0-27.77.1-55.54-.08-83.31-.04-6.27,1.58-11.71,5.13-16.76,4.04-5.73,8.1-11.44,11.57-17.56,3.4-5.97,5.24-12.36,5.61-19.14.25-4.61.3-9.27.02-13.88-1.15-19.01-12.69-32.72-31.43-36.05-11.01-1.96-22.37-2.05-33.36.66-16.62,4.1-27.55,16.86-29.32,32.85-.66,5.97-.6,11.93-.37,17.88.2,5.11,1.59,10.01,4.64,14.28ZM454.51,226.75c7.44.08,12.11,4.7,12.12,12,.01,7.31-5.07,12.25-12.54,12.19-7.14-.06-12.14-5.06-12.14-12.16,0-7.42,4.9-12.11,12.56-12.03ZM404.37,60.28c6.86.01,11.54,4.64,11.56,11.42.02,6.83-4.59,11.58-11.34,11.66-6.94.09-11.97-4.83-11.92-11.67.05-6.68,4.92-11.43,11.69-11.42Z" style="fill:#fff; stroke-width:0px;"/><path d="M53.08,307.62c-6.11-.07-12.22-.18-18.33.63-16.2,2.14-29.22,13.44-33.3,29.12-1.17,4.51-1.43,9.12-1.43,13.76.02,21.05.01,42.1.01,63.15,0,5.37.07,10.75-.03,16.12-.04,1.98.68,2.57,2.59,2.54,5.22-.1,10.46-.19,15.67.04,2.56.11,3.64-.88,4.62-3.09,4.58-10.36,9.33-20.65,14.07-30.95.93-2.01,1.57-4.18,3.09-6.01.49.41.95.78,1.4,1.16,7.71,6.55,16.32,7.02,25.09,2.93,8.48-3.96,11.9-11.27,11.72-20.44-.19-9.87-5.28-17.13-14.14-20.14-10.21-3.46-20.21-.76-26.18,7.09-2.55,3.35-4.42,7.08-6.02,10.95-3.36,8.13-6.7,16.27-10.05,24.4-.42,1.02-.9,2.02-1.5,3.37-.36-.8-.57-1.04-.57-1.27,0-17.91-.23-35.83.1-53.74.21-11.76,9.07-20.6,20.81-21.04,9.69-.37,19.41-.28,29.1-.02,7.5.2,12.89,4.2,16.37,10.75,2.23,4.19,2.79,8.73,2.79,13.43-.04,25.68-.02,51.36-.02,77.04,0,1.19.04,2.39,0,3.58-.04,1.29.52,1.92,1.83,1.92,5.67,0,11.35-.01,17.02,0,1.26,0,1.95-.47,1.92-1.81-.03-1.19.01-2.39.01-3.58,0-25.08,0-50.16,0-75.25,0-2.54-.04-5.08-.2-7.61-1.25-19.22-15.42-34.1-34.51-36.5-7.3-.92-14.61-.46-21.91-.54ZM55.11,366.85c6.5-.07,10.64,4.05,10.61,10.55-.03,6.44-4.28,10.62-10.69,10.52-6.19-.1-10.13-4.22-10.14-10.6-.01-6.4,3.9-10.4,10.22-10.46Z" style="fill:#fff; stroke-width:0px;"/><path d="M138.41,62.18c5.99-.03,11.9-.68,17.72-2.08,27.01-6.5,41.23-26.56,43.82-52.81.22-2.19-.45-2.89-2.64-2.83-4.62.14-9.25.12-13.87,0-2.15-.05-3.09.5-3.37,2.89-.71,6.24-2.36,12.28-5.17,17.94-6.73,13.59-18.05,19.99-32.77,21.18-.28-1.01.25-1.58.64-2.19,4.14-6.42,6.24-13.49,6.56-21.09.35-8.36-2.37-15.39-9.89-19.66-8.24-4.68-16.87-4.72-25.21-.28-7.94,4.23-11.68,13.14-10.02,22.57,1.37,7.74,7.36,13.57,15.65,15.22,2.77.55,5.59.23,9.39.33-1.49,1.27-2.11,1.89-2.82,2.4-4.78,3.37-10.37,4.3-15.96,5.31-2.13.38-5.1-.86-6.21,1.19-.95,1.74-.22,4.37-.36,6.6-.14,2.12.47,3.08,2.83,3.48,10.5,1.75,21.07,1.84,31.65,1.8ZM126.48,30.89c-5.74.03-9.45-3.42-9.6-8.92-.15-5.67,3.66-9.57,9.39-9.63,5.79-.06,9.81,3.68,9.91,9.2.1,5.54-3.82,9.32-9.7,9.35Z" style="fill:#fff; stroke-width:0px;"/><path d="M29.2,500.61c-.89.68-1.86,1.27-2.89,1.77-1.03.5-2.16.88-3.39,1.14-1.23.26-2.58.39-4.07.39-2.33,0-4.49-.42-6.45-1.27-1.97-.85-3.67-2.01-5.11-3.48-1.44-1.47-2.57-3.2-3.39-5.2s-1.23-4.15-1.23-6.45.4-4.41,1.2-6.41c.8-2,1.93-3.75,3.39-5.25,1.45-1.5,3.18-2.68,5.18-3.55,2-.86,4.21-1.3,6.64-1.3,1.45,0,2.78.12,3.98.36,1.2.24,2.3.58,3.3,1.02,1,.44,1.92.96,2.77,1.57.85.61,1.65,1.27,2.41,2l-3.59,4.14c-1.27-1.18-2.62-2.14-4.05-2.86-1.42-.73-3.05-1.09-4.86-1.09-1.52,0-2.92.3-4.2.89-1.29.59-2.4,1.39-3.34,2.41-.94,1.02-1.67,2.2-2.18,3.57-.52,1.36-.77,2.83-.77,4.41s.26,3.05.77,4.43c.51,1.38,1.24,2.58,2.18,3.61.94,1.03,2.05,1.84,3.34,2.43,1.29.59,2.69.89,4.2.89,1.94,0,3.61-.37,5-1.11,1.39-.74,2.77-1.75,4.14-3.02l3.59,3.64c-.82.88-1.67,1.66-2.57,2.34Z" style="fill:#fff; stroke-width:0px;"/><path d="M59.84,496.23c-.65,1.52-1.55,2.84-2.68,3.98-1.14,1.14-2.49,2.04-4.07,2.7-1.58.67-3.29,1-5.14,1s-3.51-.33-5.07-.98c-1.56-.65-2.91-1.55-4.05-2.68-1.14-1.14-2.02-2.45-2.66-3.95-.64-1.5-.95-3.11-.95-4.84s.33-3.36.98-4.89c.65-1.53,1.55-2.86,2.68-4,1.14-1.14,2.48-2.04,4.05-2.7,1.56-.67,3.26-1,5.11-1s3.55.33,5.11.98c1.56.65,2.91,1.55,4.05,2.68,1.14,1.14,2.02,2.46,2.66,3.98.64,1.52.95,3.14.95,4.86s-.33,3.35-.98,4.86ZM54.73,488.45c-.36-.94-.87-1.77-1.51-2.48s-1.42-1.27-2.3-1.68-1.87-.61-2.96-.61-2.07.2-2.96.61-1.65.96-2.28,1.66c-.63.7-1.11,1.51-1.45,2.43-.33.92-.5,1.92-.5,2.98s.18,2.07.54,3.02c.36.95.86,1.78,1.51,2.48.65.7,1.42,1.25,2.3,1.66.89.41,1.86.61,2.91.61,1.11,0,2.11-.2,3-.61.89-.41,1.65-.96,2.28-1.66.63-.7,1.11-1.51,1.45-2.43.33-.92.5-1.92.5-2.98s-.18-2.06-.54-3Z" style="fill:#fff; stroke-width:0px;"/><path d="M71.95,503.36h-5.55v-24h5.55v3.77c.39-.58.82-1.12,1.29-1.63.47-.5,1.01-.96,1.63-1.35.62-.4,1.3-.71,2.04-.94.74-.23,1.58-.34,2.52-.34,2.72,0,4.82.83,6.3,2.5,1.48,1.67,2.22,3.91,2.22,6.73v15.27h-5.55v-13.6c0-1.87-.44-3.32-1.33-4.33-.89-1.01-2.14-1.52-3.76-1.52s-2.88.52-3.87,1.56c-.99,1.04-1.49,2.5-1.49,4.38v13.51Z" style="fill:#fff; stroke-width:0px;"/><path d="M110.27,479.36h5.77l-9.82,24.18h-4.95l-9.86-24.18h5.91l6.45,17.64,6.5-17.64Z" style="fill:#fff; stroke-width:0px;"/><path d="M125.91,497.84c1.24,1.05,2.76,1.57,4.55,1.57,1.36,0,2.55-.24,3.55-.73,1-.48,1.98-1.2,2.95-2.14l3.23,2.86c-1.15,1.36-2.52,2.45-4.11,3.27-1.59.82-3.49,1.23-5.7,1.23-1.73,0-3.34-.3-4.84-.91-1.5-.61-2.8-1.45-3.91-2.55-1.11-1.09-1.98-2.4-2.61-3.93-.64-1.53-.95-3.23-.95-5.11,0-1.73.29-3.35.86-4.86.58-1.51,1.39-2.84,2.43-3.98s2.28-2.04,3.7-2.7c1.42-.67,3-1,4.73-1,1.91,0,3.58.35,5.02,1.05,1.44.7,2.64,1.64,3.59,2.82.95,1.18,1.67,2.56,2.16,4.14.48,1.58.73,3.23.73,4.95,0,.24,0,.49-.02.73-.02.24-.04.5-.07.77h-17.64c.33,1.97,1.12,3.48,2.36,4.52ZM135.81,489.68c-.09-.88-.29-1.7-.59-2.48-.3-.77-.71-1.44-1.23-2-.52-.56-1.13-1.01-1.84-1.34-.71-.33-1.52-.5-2.43-.5-1.7,0-3.1.58-4.2,1.75-1.11,1.17-1.78,2.69-2.02,4.57h12.32Z" style="fill:#fff; stroke-width:0px;"/><path d="M152.36,503.36h-5.55v-24h5.55v5.41c.76-1.82,1.83-3.27,3.23-4.36,1.39-1.09,3.15-1.59,5.27-1.5v5.82h-.32c-1.21,0-2.32.2-3.32.59-1,.39-1.86.98-2.59,1.77-.73.79-1.29,1.78-1.68,2.98-.39,1.2-.59,2.58-.59,4.16v9.14Z" style="fill:#fff; stroke-width:0px;"/><path d="M182.04,499.59c-.45.94-1.08,1.72-1.89,2.34-.8.62-1.75,1.09-2.84,1.41-1.09.32-2.26.48-3.5.48-1.73,0-3.48-.3-5.25-.91s-3.42-1.5-4.93-2.68l2.45-3.73c1.3.97,2.63,1.7,3.98,2.2,1.35.5,2.64.75,3.89.75s2.1-.23,2.75-.7c.65-.47.98-1.1.98-1.89v-.09c0-.45-.14-.85-.43-1.18-.29-.33-.68-.63-1.18-.89-.5-.26-1.08-.48-1.73-.68-.65-.2-1.33-.4-2.02-.61-.88-.27-1.77-.58-2.66-.91-.89-.33-1.7-.77-2.41-1.3-.71-.53-1.3-1.18-1.75-1.95-.45-.77-.68-1.73-.68-2.89v-.09c0-1.12.22-2.14.66-3.05.44-.91,1.05-1.68,1.82-2.32s1.68-1.12,2.73-1.45c1.05-.33,2.16-.5,3.34-.5,1.51,0,3.05.24,4.59.73,1.55.48,2.95,1.15,4.23,2l-2.18,3.91c-1.15-.7-2.32-1.25-3.5-1.66-1.18-.41-2.27-.61-3.27-.61-1.06,0-1.89.23-2.48.68-.59.45-.89,1.03-.89,1.73v.09c0,.42.15.8.45,1.11.3.32.7.61,1.2.86.5.26,1.08.5,1.73.73.65.23,1.33.45,2.02.66.88.27,1.76.59,2.64.95.88.36,1.67.81,2.39,1.34.71.53,1.3,1.17,1.75,1.93.45.76.68,1.68.68,2.77v.09c0,1.27-.23,2.38-.68,3.32Z" style="fill:#fff; stroke-width:0px;"/><path d="M202.99,503.36v-2.95c-.82.97-1.86,1.79-3.14,2.45s-2.82,1-4.64,1c-1.15,0-2.24-.16-3.27-.48-1.03-.32-1.93-.79-2.7-1.41-.77-.62-1.39-1.39-1.86-2.32-.47-.92-.7-1.99-.7-3.2v-.09c0-1.3.24-2.44.73-3.41.48-.97,1.16-1.77,2.02-2.41.86-.64,1.89-1.11,3.09-1.43,1.2-.32,2.49-.48,3.89-.48s2.69.09,3.7.27c1.01.18,1.99.42,2.93.73v-.59c0-1.67-.51-2.94-1.52-3.82-1.02-.88-2.48-1.32-4.39-1.32-1.36,0-2.58.14-3.64.41-1.06.27-2.14.64-3.23,1.09l-1.5-4.41c1.33-.61,2.7-1.09,4.09-1.45,1.39-.36,3.08-.55,5.05-.55,3.58,0,6.23.89,7.95,2.66,1.73,1.77,2.59,4.27,2.59,7.48v14.23h-5.45ZM203.13,493.18c-.7-.27-1.52-.5-2.48-.68-.95-.18-1.96-.27-3.02-.27-1.73,0-3.08.33-4.05,1-.97.67-1.45,1.62-1.45,2.86v.09c0,1.15.45,2.03,1.34,2.64.89.61,1.99.91,3.3.91.91,0,1.75-.12,2.52-.36.77-.24,1.45-.58,2.02-1.02.58-.44,1.02-.97,1.34-1.59.32-.62.48-1.31.48-2.07v-1.5Z" style="fill:#fff; stroke-width:0px;"/><path d="M221.45,495.85c0,1.06.26,1.83.77,2.3.51.47,1.24.71,2.18.71,1.18,0,2.32-.27,3.41-.82v4.5c-.7.39-1.44.7-2.23.91-.79.21-1.7.32-2.73.32s-1.93-.12-2.78-.36c-.86-.24-1.6-.64-2.22-1.18-.63-.55-1.11-1.27-1.44-2.16-.34-.9-.5-2.01-.5-3.35v-12.67h-3.05v-4.68h3.05v-6.59h5.55v6.59h6.45v4.68h-6.45v11.81Z" style="fill:#fff; stroke-width:0px;"/><path d="M233.49,475.68v-5.23h5.95v5.23h-5.95ZM233.72,503.36v-24h5.55v24h-5.55Z" style="fill:#fff; stroke-width:0px;"/><path d="M269.7,496.23c-.65,1.52-1.55,2.84-2.68,3.98-1.14,1.14-2.49,2.04-4.07,2.7-1.58.67-3.29,1-5.14,1s-3.51-.33-5.07-.98c-1.56-.65-2.91-1.55-4.05-2.68-1.14-1.14-2.02-2.45-2.66-3.95-.64-1.5-.95-3.11-.95-4.84s.33-3.36.98-4.89c.65-1.53,1.55-2.86,2.68-4,1.14-1.14,2.48-2.04,4.05-2.7,1.56-.67,3.26-1,5.11-1s3.55.33,5.11.98c1.56.65,2.91,1.55,4.05,2.68,1.14,1.14,2.02,2.46,2.66,3.98.64,1.52.95,3.14.95,4.86s-.33,3.35-.98,4.86ZM264.59,488.45c-.36-.94-.87-1.77-1.51-2.48s-1.42-1.27-2.3-1.68-1.87-.61-2.96-.61-2.07.2-2.96.61-1.65.96-2.28,1.66c-.63.7-1.11,1.51-1.45,2.43-.33.92-.5,1.92-.5,2.98s.18,2.07.54,3.02c.36.95.86,1.78,1.51,2.48.65.7,1.42,1.25,2.3,1.66.89.41,1.86.61,2.91.61,1.11,0,2.11-.2,3-.61.89-.41,1.65-.96,2.28-1.66.63-.7,1.11-1.51,1.45-2.43.33-.92.5-1.92.5-2.98s-.18-2.06-.54-3Z" style="fill:#fff; stroke-width:0px;"/><path d="M281.81,503.36h-5.55v-24h5.55v3.77c.39-.58.82-1.12,1.29-1.63.47-.5,1.01-.96,1.63-1.35.62-.4,1.3-.71,2.04-.94.74-.23,1.58-.34,2.52-.34,2.72,0,4.82.83,6.3,2.5,1.48,1.67,2.22,3.91,2.22,6.73v15.27h-5.55v-13.6c0-1.87-.44-3.32-1.33-4.33-.89-1.01-2.14-1.52-3.76-1.52s-2.88.52-3.87,1.56c-.99,1.04-1.49,2.5-1.49,4.38v13.51Z" style="fill:#fff; stroke-width:0px;"/><path d="M454.6,500.61c-.89.68-1.86,1.27-2.89,1.77-1.03.5-2.16.88-3.39,1.14-1.23.26-2.58.39-4.07.39-2.33,0-4.49-.42-6.45-1.27-1.97-.85-3.67-2.01-5.11-3.48-1.44-1.47-2.57-3.2-3.39-5.2s-1.23-4.15-1.23-6.45.4-4.41,1.2-6.41c.8-2,1.93-3.75,3.39-5.25,1.45-1.5,3.18-2.68,5.18-3.55,2-.86,4.21-1.3,6.64-1.3,1.45,0,2.78.12,3.98.36,1.2.24,2.3.58,3.3,1.02,1,.44,1.92.96,2.77,1.57.85.61,1.65,1.27,2.41,2l-3.59,4.14c-1.27-1.18-2.62-2.14-4.05-2.86-1.42-.73-3.05-1.09-4.86-1.09-1.52,0-2.92.3-4.2.89-1.29.59-2.4,1.39-3.34,2.41-.94,1.02-1.67,2.2-2.18,3.57-.52,1.36-.77,2.83-.77,4.41s.26,3.05.77,4.43c.51,1.38,1.24,2.58,2.18,3.61.94,1.03,2.05,1.84,3.34,2.43,1.29.59,2.69.89,4.2.89,1.94,0,3.61-.37,5-1.11,1.39-.74,2.77-1.75,4.14-3.02l3.59,3.64c-.82.88-1.67,1.66-2.57,2.34Z" style="fill:#fff; stroke-width:0px;"/><path d="M477.08,503.36v-2.95c-.82.97-1.86,1.79-3.14,2.45s-2.82,1-4.64,1c-1.15,0-2.24-.16-3.27-.48-1.03-.32-1.93-.79-2.7-1.41-.77-.62-1.39-1.39-1.86-2.32-.47-.92-.7-1.99-.7-3.2v-.09c0-1.3.24-2.44.73-3.41.48-.97,1.16-1.77,2.02-2.41.86-.64,1.89-1.11,3.09-1.43,1.2-.32,2.49-.48,3.89-.48s2.69.09,3.7.27c1.01.18,1.99.42,2.93.73v-.59c0-1.67-.51-2.94-1.52-3.82-1.02-.88-2.48-1.32-4.39-1.32-1.36,0-2.58.14-3.64.41-1.06.27-2.14.64-3.23,1.09l-1.5-4.41c1.33-.61,2.7-1.09,4.09-1.45,1.39-.36,3.08-.55,5.05-.55,3.58,0,6.23.89,7.95,2.66,1.73,1.77,2.59,4.27,2.59,7.48v14.23h-5.45ZM477.21,493.18c-.7-.27-1.52-.5-2.48-.68-.95-.18-1.96-.27-3.02-.27-1.73,0-3.08.33-4.05,1-.97.67-1.45,1.62-1.45,2.86v.09c0,1.15.45,2.03,1.34,2.64.89.61,1.99.91,3.3.91.91,0,1.75-.12,2.52-.36.77-.24,1.45-.58,2.02-1.02.58-.44,1.02-.97,1.34-1.59.32-.62.48-1.31.48-2.07v-1.5Z" style="fill:#fff; stroke-width:0px;"/><path d="M494.62,503.36h-5.55v-24h5.55v5.41c.76-1.82,1.83-3.27,3.23-4.36,1.39-1.09,3.15-1.59,5.27-1.5v5.82h-.32c-1.21,0-2.32.2-3.32.59-1,.39-1.86.98-2.59,1.77-.73.79-1.29,1.78-1.68,2.98-.39,1.2-.59,2.58-.59,4.16v9.14Z" style="fill:#fff; stroke-width:0px;"/><path d="M525.21,503.36v-4c-.88,1.24-1.97,2.3-3.29,3.18-1.32.88-2.94,1.32-4.87,1.32-1.42,0-2.8-.27-4.13-.82-1.33-.55-2.51-1.36-3.54-2.43-1.03-1.08-1.86-2.39-2.49-3.93-.64-1.55-.95-3.32-.95-5.32s.31-3.77.93-5.32c.62-1.55,1.44-2.86,2.47-3.93,1.03-1.08,2.21-1.89,3.56-2.43s2.73-.82,4.15-.82c1.96,0,3.6.42,4.9,1.27,1.3.85,2.39,1.83,3.27,2.95v-12.91h5.55v33.18h-5.55ZM524.74,488.18c-.38-.94-.88-1.75-1.52-2.43-.63-.68-1.37-1.2-2.22-1.57-.85-.36-1.72-.55-2.63-.55s-1.82.17-2.65.52c-.83.35-1.56.86-2.2,1.52-.63.67-1.13,1.48-1.49,2.43-.36.95-.54,2.04-.54,3.25s.18,2.25.54,3.2c.36.95.86,1.77,1.49,2.43s1.37,1.18,2.2,1.55c.83.36,1.71.55,2.65.55s1.78-.18,2.63-.55c.84-.36,1.59-.89,2.22-1.57.63-.68,1.14-1.49,1.52-2.43.38-.94.57-2,.57-3.18s-.19-2.24-.57-3.18Z" style="fill:#fff; stroke-width:0px;"/><path d="M554.08,499.59c-.45.94-1.08,1.72-1.89,2.34-.8.62-1.75,1.09-2.84,1.41-1.09.32-2.26.48-3.5.48-1.73,0-3.48-.3-5.25-.91s-3.42-1.5-4.93-2.68l2.45-3.73c1.3.97,2.63,1.7,3.98,2.2,1.35.5,2.64.75,3.89.75s2.1-.23,2.75-.7c.65-.47.98-1.1.98-1.89v-.09c0-.45-.14-.85-.43-1.18-.29-.33-.68-.63-1.18-.89-.5-.26-1.08-.48-1.73-.68-.65-.2-1.33-.4-2.02-.61-.88-.27-1.77-.58-2.66-.91-.89-.33-1.7-.77-2.41-1.3-.71-.53-1.3-1.18-1.75-1.95-.45-.77-.68-1.73-.68-2.89v-.09c0-1.12.22-2.14.66-3.05.44-.91,1.05-1.68,1.82-2.32s1.68-1.12,2.73-1.45c1.05-.33,2.16-.5,3.34-.5,1.51,0,3.05.24,4.59.73,1.55.48,2.95,1.15,4.23,2l-2.18,3.91c-1.15-.7-2.32-1.25-3.5-1.66-1.18-.41-2.27-.61-3.27-.61-1.06,0-1.89.23-2.48.68-.59.45-.89,1.03-.89,1.73v.09c0,.42.15.8.45,1.11.3.32.7.61,1.2.86.5.26,1.08.5,1.73.73.65.23,1.33.45,2.02.66.88.27,1.76.59,2.64.95.88.36,1.67.81,2.39,1.34.71.53,1.3,1.17,1.75,1.93.45.76.68,1.68.68,2.77v.09c0,1.27-.23,2.38-.68,3.32Z" style="fill:#fff; stroke-width:0px;"/><rect x="618.86" y="434.01" width="48.79" height="76.95" rx="12.52" ry="12.52" transform="translate(258.09 -226.56) rotate(24.85)" style="fill:#36cbff; stroke-width:0px;"/><path d="M642.18,441.31c.48,0,.94.1,1.39.31l23.04,10.67c.8.37,1.41,1.03,1.72,1.87.31.83.27,1.73-.1,2.54l-20.85,45.03c-.54,1.17-1.72,1.92-3.01,1.92-.48,0-.95-.1-1.39-.31l-23.04-10.67c-.8-.37-1.41-1.03-1.72-1.87-.3-.83-.27-1.73.1-2.54l20.85-45.03c.54-1.17,1.72-1.92,3.01-1.92M642.18,436.31c-3.14,0-6.15,1.79-7.55,4.82l-20.85,45.03c-1.93,4.17-.12,9.11,4.05,11.04l23.04,10.67c1.13.52,2.32.77,3.49.77,3.14,0,6.15-1.79,7.55-4.82l20.85-45.03c1.93-4.17.12-9.11-4.05-11.04l-23.04-10.67c-1.13-.52-2.32-.77-3.49-.77h0Z" style="fill:#fff; stroke-width:0px;"/><rect x="597.72" y="425.65" width="48.79" height="76.95" rx="12.52" ry="12.52" transform="translate(107.04 -116.51) rotate(11.7)" style="fill:#fa99ff; stroke-width:0px;"/><path d="M614.72,433.94c.23,0,.45.02.68.07l24.86,5.15c.87.18,1.61.69,2.1,1.43.49.74.65,1.63.48,2.49l-10.06,48.6c-.32,1.53-1.68,2.65-3.24,2.65-.23,0-.45-.02-.68-.07l-24.86-5.15c-.87-.18-1.61-.69-2.1-1.43-.49-.74-.65-1.63-.48-2.49l10.06-48.6c.32-1.53,1.68-2.64,3.24-2.64M614.71,428.94c-3.86,0-7.32,2.7-8.13,6.63l-10.06,48.6c-.93,4.5,1.96,8.9,6.46,9.83l24.86,5.15c.57.12,1.14.17,1.69.17,3.86,0,7.32-2.7,8.13-6.63l10.06-48.6c.93-4.5-1.96-8.9-6.46-9.83l-24.86-5.15c-.57-.12-1.14-.17-1.69-.17h0Z" style="fill:#fff; stroke-width:0px;"/><rect x="572.17" y="424.46" width="48.79" height="76.95" rx="12.52" ry="12.52" transform="translate(33.01 -39.66) rotate(3.92)" style="fill:#ffa645; stroke-width:0px;"/><path d="M585.59,433.99h0c.08,0,.16,0,.23,0l25.33,1.73c1.82.12,3.21,1.71,3.08,3.53l-3.39,49.51c-.12,1.73-1.57,3.09-3.3,3.09-.08,0-.16,0-.23,0l-25.33-1.73c-.88-.06-1.69-.46-2.27-1.13-.58-.67-.87-1.52-.81-2.41l3.39-49.51c.12-1.73,1.57-3.09,3.3-3.09M585.59,428.99c-4.33,0-7.99,3.36-8.29,7.75l-3.39,49.51c-.31,4.58,3.15,8.55,7.73,8.86l25.33,1.73c.19.01.39.02.58.02,4.33,0,7.99-3.36,8.29-7.75l3.39-49.51c.31-4.58-3.15-8.55-7.73-8.86l-25.33-1.73c-.19-.01-.39-.02-.58-.02h0Z" style="fill:#fff; stroke-width:0px;"/></g></svg>